<svg id="visual" viewBox="0 0 900 600" width="900" height="600" xmlns="http://www.w3.org/2000/svg" xmlns:xlink="http://www.w3.org/1999/xlink" version="1.1"><g stroke-width="1" stroke-linejoin="bevel"><path d="M445 297L442 266.1L409 312Z" fill="#04232f" stroke="#04232f"></path><path d="M442 266.1L402 252.1L409 312Z" fill="#006a45" stroke="#006a45"></path><path d="M402 252.1L371 261.1L409 312Z" fill="#004e4d" stroke="#004e4d"></path><path d="M349 350.9L415 342.9L409 312Z" fill="#004e4d" stroke="#004e4d"></path><path d="M409 312L415 342.9L445 297Z" fill="#04232f" stroke="#04232f"></path><path d="M371 261.1L355 293L409 312Z" fill="#006a45" stroke="#006a45"></path><path d="M415 342.9L449 347.9L445 297Z" fill="#006a45" stroke="#006a45"></path><path d="M490 246.1L459 220.3L442 266.1Z" fill="#005d4d" stroke="#005d4d"></path><path d="M442 266.1L415 208.3L402 252.1Z" fill="#00474a" stroke="#00474a"></path><path d="M402 252.1L348 214.3L371 261.1Z" fill="#006a45" stroke="#006a45"></path><path d="M490 246.1L442 266.1L500 294Z" fill="#00554e" stroke="#00554e"></path><path d="M459 220.3L415 208.3L442 266.1Z" fill="#00554e" stroke="#00554e"></path><path d="M500 294L442 266.1L445 297Z" fill="#04232f" stroke="#04232f"></path><path d="M449 347.9L500 294L445 297Z" fill="#004e4d" stroke="#004e4d"></path><path d="M490 246.1L491 222.3L459 220.3Z" fill="#00634a" stroke="#00634a"></path><path d="M459 220.3L438 174.4L415 208.3Z" fill="#00634a" stroke="#00634a"></path><path d="M550 220.3L491 222.3L490 246.1Z" fill="#004e4d" stroke="#004e4d"></path><path d="M355 293L349 350.9L409 312Z" fill="#00554e" stroke="#00554e"></path><path d="M415 342.9L417 393.7L449 347.9Z" fill="#006a45" stroke="#006a45"></path><path d="M415 208.3L348 214.3L402 252.1Z" fill="#022a36" stroke="#022a36"></path><path d="M313 262.1L316 294L355 293Z" fill="#004046" stroke="#004046"></path><path d="M355 293L316 294L349 350.9Z" fill="#00474a" stroke="#00474a"></path><path d="M313 262.1L355 293L371 261.1Z" fill="#004e4d" stroke="#004e4d"></path><path d="M348 214.3L313 262.1L371 261.1Z" fill="#003841" stroke="#003841"></path><path d="M498 376.7L503 350.9L449 347.9Z" fill="#00474a" stroke="#00474a"></path><path d="M449 347.9L503 350.9L500 294Z" fill="#006a45" stroke="#006a45"></path><path d="M368 394.7L417 393.7L415 342.9Z" fill="#00554e" stroke="#00554e"></path><path d="M492 160.4L438 174.4L459 220.3Z" fill="#004046" stroke="#004046"></path><path d="M415 208.3L366 173.4L348 214.3Z" fill="#022a36" stroke="#022a36"></path><path d="M438 174.4L404 166.4L415 208.3Z" fill="#00474a" stroke="#00474a"></path><path d="M417 393.7L461 395.7L449 347.9Z" fill="#00634a" stroke="#00634a"></path><path d="M323 177.4L325 209.3L348 214.3Z" fill="#04232f" stroke="#04232f"></path><path d="M348 214.3L325 209.3L313 262.1Z" fill="#003841" stroke="#003841"></path><path d="M327 391.7L368 394.7L349 350.9Z" fill="#004e4d" stroke="#004e4d"></path><path d="M349 350.9L368 394.7L415 342.9Z" fill="#00474a" stroke="#00474a"></path><path d="M417 393.7L455 417.6L461 395.7Z" fill="#006a45" stroke="#006a45"></path><path d="M461 395.7L498 376.7L449 347.9Z" fill="#00474a" stroke="#00474a"></path><path d="M404 166.4L366 173.4L415 208.3Z" fill="#04232f" stroke="#04232f"></path><path d="M271 299L302 332.9L316 294Z" fill="#04232f" stroke="#04232f"></path><path d="M316 294L302 332.9L349 350.9Z" fill="#00313c" stroke="#00313c"></path><path d="M540 338.9L545 290L500 294Z" fill="#00554e" stroke="#00554e"></path><path d="M500 294L549 259.1L490 246.1Z" fill="#006a45" stroke="#006a45"></path><path d="M540 338.9L500 294L503 350.9Z" fill="#00313c" stroke="#00313c"></path><path d="M545 290L549 259.1L500 294Z" fill="#04232f" stroke="#04232f"></path><path d="M491 222.3L492 160.4L459 220.3Z" fill="#004e4d" stroke="#004e4d"></path><path d="M552 380.7L540 338.9L503 350.9Z" fill="#004e4d" stroke="#004e4d"></path><path d="M545 290L588 268.1L549 259.1Z" fill="#004e4d" stroke="#004e4d"></path><path d="M415 429.6L455 417.6L417 393.7Z" fill="#022a36" stroke="#022a36"></path><path d="M461 395.7L484 416.6L498 376.7Z" fill="#00554e" stroke="#00554e"></path><path d="M498 376.7L552 380.7L503 350.9Z" fill="#04232f" stroke="#04232f"></path><path d="M302 332.9L327 391.7L349 350.9Z" fill="#004e4d" stroke="#004e4d"></path><path d="M368 394.7L415 429.6L417 393.7Z" fill="#005d4d" stroke="#005d4d"></path><path d="M364 132.6L323 177.4L366 173.4Z" fill="#005d4d" stroke="#005d4d"></path><path d="M366 173.4L323 177.4L348 214.3Z" fill="#004e4d" stroke="#004e4d"></path><path d="M265 258.1L271 299L313 262.1Z" fill="#00554e" stroke="#00554e"></path><path d="M313 262.1L271 299L316 294Z" fill="#003841" stroke="#003841"></path><path d="M540 174.4L492 160.4L491 222.3Z" fill="#022a36" stroke="#022a36"></path><path d="M438 174.4L394 130.6L404 166.4Z" fill="#005d4d" stroke="#005d4d"></path><path d="M372 432.6L415 429.6L368 394.7Z" fill="#00474a" stroke="#00474a"></path><path d="M549 259.1L550 220.3L490 246.1Z" fill="#022a36" stroke="#022a36"></path><path d="M440 459.4L484 416.6L455 417.6Z" fill="#004e4d" stroke="#004e4d"></path><path d="M455 417.6L484 416.6L461 395.7Z" fill="#00313c" stroke="#00313c"></path><path d="M265 258.1L313 262.1L264 221.3Z" fill="#005d4d" stroke="#005d4d"></path><path d="M302 332.9L265 394.7L327 391.7Z" fill="#004046" stroke="#004046"></path><path d="M462 129.6L394 130.6L438 174.4Z" fill="#022a36" stroke="#022a36"></path><path d="M404 166.4L394 130.6L366 173.4Z" fill="#006a45" stroke="#006a45"></path><path d="M264 221.3L313 262.1L325 209.3Z" fill="#006a45" stroke="#006a45"></path><path d="M322 417.6L372 432.6L368 394.7Z" fill="#00474a" stroke="#00474a"></path><path d="M232 300L269 332.9L271 299Z" fill="#022a36" stroke="#022a36"></path><path d="M271 299L269 332.9L302 332.9Z" fill="#00474a" stroke="#00474a"></path><path d="M492 160.4L462 129.6L438 174.4Z" fill="#022a36" stroke="#022a36"></path><path d="M394 130.6L364 132.6L366 173.4Z" fill="#004e4d" stroke="#004e4d"></path><path d="M550 220.3L540 174.4L491 222.3Z" fill="#00313c" stroke="#00313c"></path><path d="M492 160.4L503 140.6L462 129.6Z" fill="#003841" stroke="#003841"></path><path d="M265 394.7L322 417.6L327 391.7Z" fill="#005d4d" stroke="#005d4d"></path><path d="M327 391.7L322 417.6L368 394.7Z" fill="#006a45" stroke="#006a45"></path><path d="M543 429.6L552 380.7L498 376.7Z" fill="#00634a" stroke="#00634a"></path><path d="M595 297L588 268.1L545 290Z" fill="#004046" stroke="#004046"></path><path d="M549 259.1L588 268.1L550 220.3Z" fill="#003841" stroke="#003841"></path><path d="M540 174.4L503 140.6L492 160.4Z" fill="#00554e" stroke="#00554e"></path><path d="M277 158.4L264 221.3L323 177.4Z" fill="#00554e" stroke="#00554e"></path><path d="M323 177.4L264 221.3L325 209.3Z" fill="#00313c" stroke="#00313c"></path><path d="M595 297L545 290L540 338.9Z" fill="#003841" stroke="#003841"></path><path d="M550 220.3L593 210.3L540 174.4Z" fill="#00554e" stroke="#00554e"></path><path d="M552 380.7L579 352.9L540 338.9Z" fill="#006a45" stroke="#006a45"></path><path d="M395 467.4L440 459.4L415 429.6Z" fill="#00554e" stroke="#00554e"></path><path d="M415 429.6L440 459.4L455 417.6Z" fill="#04232f" stroke="#04232f"></path><path d="M484 416.6L543 429.6L498 376.7Z" fill="#04232f" stroke="#04232f"></path><path d="M395 467.4L415 429.6L372 432.6Z" fill="#004046" stroke="#004046"></path><path d="M579 352.9L595 297L540 338.9Z" fill="#004e4d" stroke="#004e4d"></path><path d="M351 466.4L395 467.4L372 432.6Z" fill="#022a36" stroke="#022a36"></path><path d="M371 83.7L326 122.6L364 132.6Z" fill="#00634a" stroke="#00634a"></path><path d="M364 132.6L326 122.6L323 177.4Z" fill="#003841" stroke="#003841"></path><path d="M371 83.7L364 132.6L394 130.6Z" fill="#006a45" stroke="#006a45"></path><path d="M217 260.1L232 300L265 258.1Z" fill="#006a45" stroke="#006a45"></path><path d="M265 258.1L232 300L271 299Z" fill="#00474a" stroke="#00474a"></path><path d="M269 332.9L265 394.7L302 332.9Z" fill="#006a45" stroke="#006a45"></path><path d="M326 122.6L277 158.4L323 177.4Z" fill="#00474a" stroke="#00474a"></path><path d="M264 221.3L233 217.3L265 258.1Z" fill="#00634a" stroke="#00634a"></path><path d="M214 347.9L265 394.7L269 332.9Z" fill="#003841" stroke="#003841"></path><path d="M322 417.6L351 466.4L372 432.6Z" fill="#006a45" stroke="#006a45"></path><path d="M623 247.1L593 210.3L588 268.1Z" fill="#003841" stroke="#003841"></path><path d="M588 268.1L593 210.3L550 220.3Z" fill="#005d4d" stroke="#005d4d"></path><path d="M540 174.4L544 131.6L503 140.6Z" fill="#004046" stroke="#004046"></path><path d="M530 461.4L543 429.6L484 416.6Z" fill="#004e4d" stroke="#004e4d"></path><path d="M552 380.7L591 391.7L579 352.9Z" fill="#003841" stroke="#003841"></path><path d="M448 86.7L409 90.7L462 129.6Z" fill="#00554e" stroke="#00554e"></path><path d="M462 129.6L409 90.7L394 130.6Z" fill="#006a45" stroke="#006a45"></path><path d="M311 466.4L351 466.4L322 417.6Z" fill="#004046" stroke="#004046"></path><path d="M593 210.3L572 160.4L540 174.4Z" fill="#004046" stroke="#004046"></path><path d="M490 82.7L448 86.7L462 129.6Z" fill="#04232f" stroke="#04232f"></path><path d="M227 183.4L233 217.3L264 221.3Z" fill="#006a45" stroke="#006a45"></path><path d="M572 160.4L544 131.6L540 174.4Z" fill="#022a36" stroke="#022a36"></path><path d="M490 82.7L462 129.6L503 140.6Z" fill="#00634a" stroke="#00634a"></path><path d="M617 336.9L617 310L595 297Z" fill="#00634a" stroke="#00634a"></path><path d="M595 297L623 247.1L588 268.1Z" fill="#022a36" stroke="#022a36"></path><path d="M617 336.9L595 297L579 352.9Z" fill="#003841" stroke="#003841"></path><path d="M221 429.6L272 421.6L265 394.7Z" fill="#003841" stroke="#003841"></path><path d="M265 394.7L272 421.6L322 417.6Z" fill="#00634a" stroke="#00634a"></path><path d="M233 217.3L217 260.1L265 258.1Z" fill="#00554e" stroke="#00554e"></path><path d="M232 300L214 347.9L269 332.9Z" fill="#00634a" stroke="#00634a"></path><path d="M543 429.6L591 391.7L552 380.7Z" fill="#04232f" stroke="#04232f"></path><path d="M483 502.3L494 474.4L440 459.4Z" fill="#00313c" stroke="#00313c"></path><path d="M440 459.4L494 474.4L484 416.6Z" fill="#005d4d" stroke="#005d4d"></path><path d="M543 429.6L575 438.6L591 391.7Z" fill="#00554e" stroke="#00554e"></path><path d="M483 502.3L440 459.4L450 522.3Z" fill="#004046" stroke="#004046"></path><path d="M591 391.7L617 336.9L579 352.9Z" fill="#005d4d" stroke="#005d4d"></path><path d="M400 39.9L371 83.7L409 90.7Z" fill="#04232f" stroke="#04232f"></path><path d="M409 90.7L371 83.7L394 130.6Z" fill="#005d4d" stroke="#005d4d"></path><path d="M212 137.6L227 183.4L277 158.4Z" fill="#00554e" stroke="#00554e"></path><path d="M629 222.3L623 247.1L674 255.1Z" fill="#004e4d" stroke="#004e4d"></path><path d="M617 310L623 247.1L595 297Z" fill="#00474a" stroke="#00474a"></path><path d="M619 166.4L588 127.6L572 160.4Z" fill="#005d4d" stroke="#005d4d"></path><path d="M494 474.4L530 461.4L484 416.6Z" fill="#003841" stroke="#003841"></path><path d="M272 421.6L311 466.4L322 417.6Z" fill="#00474a" stroke="#00474a"></path><path d="M450 522.3L440 459.4L395 467.4Z" fill="#004046" stroke="#004046"></path><path d="M540 96.7L490 82.7L503 140.6Z" fill="#00474a" stroke="#00474a"></path><path d="M448 86.7L400 39.9L409 90.7Z" fill="#00313c" stroke="#00313c"></path><path d="M190 306L214 347.9L232 300Z" fill="#003841" stroke="#003841"></path><path d="M277 158.4L227 183.4L264 221.3Z" fill="#022a36" stroke="#022a36"></path><path d="M173 204.3L168 267.1L217 260.1Z" fill="#003841" stroke="#003841"></path><path d="M260 116.6L277 158.4L326 122.6Z" fill="#00313c" stroke="#00313c"></path><path d="M674 255.1L623 247.1L676 291Z" fill="#004e4d" stroke="#004e4d"></path><path d="M623 247.1L629 222.3L593 210.3Z" fill="#006a45" stroke="#006a45"></path><path d="M530 461.4L575 438.6L543 429.6Z" fill="#00474a" stroke="#00474a"></path><path d="M591 391.7L626 392.7L617 336.9Z" fill="#00313c" stroke="#00313c"></path><path d="M588 127.6L540 96.7L544 131.6Z" fill="#00554e" stroke="#00554e"></path><path d="M544 131.6L540 96.7L503 140.6Z" fill="#00554e" stroke="#00554e"></path><path d="M588 127.6L544 131.6L572 160.4Z" fill="#004046" stroke="#004046"></path><path d="M360 513.3L395 467.4L351 466.4Z" fill="#04232f" stroke="#04232f"></path><path d="M494 474.4L543 504.3L530 461.4Z" fill="#006a45" stroke="#006a45"></path><path d="M530 461.4L595 483.4L575 438.6Z" fill="#00313c" stroke="#00313c"></path><path d="M370 38.9L313 80.7L371 83.7Z" fill="#005d4d" stroke="#005d4d"></path><path d="M371 83.7L313 80.7L326 122.6Z" fill="#005d4d" stroke="#005d4d"></path><path d="M168 267.1L190 306L217 260.1Z" fill="#005d4d" stroke="#005d4d"></path><path d="M217 260.1L190 306L232 300Z" fill="#005d4d" stroke="#005d4d"></path><path d="M277 82.7L260 116.6L326 122.6Z" fill="#00474a" stroke="#00474a"></path><path d="M619 166.4L572 160.4L593 210.3Z" fill="#00554e" stroke="#00554e"></path><path d="M184 382.7L212 387.7L214 347.9Z" fill="#00634a" stroke="#00634a"></path><path d="M214 347.9L212 387.7L265 394.7Z" fill="#005d4d" stroke="#005d4d"></path><path d="M272 421.6L276 475.4L311 466.4Z" fill="#006a45" stroke="#006a45"></path><path d="M629 222.3L619 166.4L593 210.3Z" fill="#006a45" stroke="#006a45"></path><path d="M633 423.6L626 392.7L591 391.7Z" fill="#005d4d" stroke="#005d4d"></path><path d="M676 291L623 247.1L617 310Z" fill="#006a45" stroke="#006a45"></path><path d="M319 524.3L351 466.4L311 466.4Z" fill="#00313c" stroke="#00313c"></path><path d="M319 524.3L360 513.3L351 466.4Z" fill="#00313c" stroke="#00313c"></path><path d="M360 513.3L393 519.3L395 467.4Z" fill="#00634a" stroke="#00634a"></path><path d="M227 473.4L276 475.4L272 421.6Z" fill="#005d4d" stroke="#005d4d"></path><path d="M393 519.3L450 522.3L395 467.4Z" fill="#00554e" stroke="#00554e"></path><path d="M450 33.9L448 86.7L490 82.7Z" fill="#006a45" stroke="#006a45"></path><path d="M450 33.9L400 39.9L448 86.7Z" fill="#00554e" stroke="#00554e"></path><path d="M187 428.6L221 429.6L212 387.7Z" fill="#00474a" stroke="#00474a"></path><path d="M212 387.7L221 429.6L265 394.7Z" fill="#00313c" stroke="#00313c"></path><path d="M307 49.9L277 82.7L313 80.7Z" fill="#005d4d" stroke="#005d4d"></path><path d="M313 80.7L277 82.7L326 122.6Z" fill="#003841" stroke="#003841"></path><path d="M400 39.9L370 38.9L371 83.7Z" fill="#04232f" stroke="#04232f"></path><path d="M173 204.3L233 217.3L227 183.4Z" fill="#00474a" stroke="#00474a"></path><path d="M173 204.3L217 260.1L233 217.3Z" fill="#00313c" stroke="#00313c"></path><path d="M190 306L172 345.9L214 347.9Z" fill="#00474a" stroke="#00474a"></path><path d="M212 137.6L277 158.4L260 116.6Z" fill="#022a36" stroke="#022a36"></path><path d="M531 52.9L490 82.7L540 96.7Z" fill="#022a36" stroke="#022a36"></path><path d="M499 33.9L450 33.9L490 82.7Z" fill="#006a45" stroke="#006a45"></path><path d="M400 39.9L361 0L370 38.9Z" fill="#00554e" stroke="#00554e"></path><path d="M483 502.3L543 504.3L494 474.4Z" fill="#00634a" stroke="#00634a"></path><path d="M575 438.6L633 423.6L591 391.7Z" fill="#006a45" stroke="#006a45"></path><path d="M499 545.1L543 504.3L483 502.3Z" fill="#00634a" stroke="#00634a"></path><path d="M222 91.7L212 137.6L260 116.6Z" fill="#04232f" stroke="#04232f"></path><path d="M142 308L172 345.9L190 306Z" fill="#00634a" stroke="#00634a"></path><path d="M172 345.9L184 382.7L214 347.9Z" fill="#004046" stroke="#004046"></path><path d="M595 483.4L633 423.6L575 438.6Z" fill="#006a45" stroke="#006a45"></path><path d="M676 291L617 310L686 345.9Z" fill="#04232f" stroke="#04232f"></path><path d="M587 79.7L531 52.9L540 96.7Z" fill="#022a36" stroke="#022a36"></path><path d="M587 79.7L540 96.7L588 127.6Z" fill="#004e4d" stroke="#004e4d"></path><path d="M617 310L617 336.9L686 345.9Z" fill="#00634a" stroke="#00634a"></path><path d="M629 222.3L669 162.4L619 166.4Z" fill="#00634a" stroke="#00634a"></path><path d="M667 393.7L617 336.9L626 392.7Z" fill="#00313c" stroke="#00313c"></path><path d="M212 137.6L190 164.4L227 183.4Z" fill="#00634a" stroke="#00634a"></path><path d="M190 164.4L173 204.3L227 183.4Z" fill="#022a36" stroke="#022a36"></path><path d="M370 38.9L307 49.9L313 80.7Z" fill="#004e4d" stroke="#004e4d"></path><path d="M277 82.7L222 91.7L260 116.6Z" fill="#00474a" stroke="#00474a"></path><path d="M280 514.3L319 524.3L311 466.4Z" fill="#00313c" stroke="#00313c"></path><path d="M361 554.1L395 553.1L393 519.3Z" fill="#022a36" stroke="#022a36"></path><path d="M393 519.3L395 553.1L450 522.3Z" fill="#003841" stroke="#003841"></path><path d="M280 514.3L311 466.4L276 475.4Z" fill="#00554e" stroke="#00554e"></path><path d="M531 52.9L499 33.9L490 82.7Z" fill="#00634a" stroke="#00634a"></path><path d="M635 115.6L588 127.6L619 166.4Z" fill="#00554e" stroke="#00554e"></path><path d="M624 93.7L587 79.7L588 127.6Z" fill="#022a36" stroke="#022a36"></path><path d="M531 0L487 0L499 33.9Z" fill="#00474a" stroke="#00474a"></path><path d="M708 260.1L677 222.3L674 255.1Z" fill="#00634a" stroke="#00634a"></path><path d="M674 255.1L677 222.3L629 222.3Z" fill="#022a36" stroke="#022a36"></path><path d="M543 504.3L595 483.4L530 461.4Z" fill="#00474a" stroke="#00474a"></path><path d="M227 473.4L272 421.6L221 429.6Z" fill="#003841" stroke="#003841"></path><path d="M227 473.4L280 514.3L276 475.4Z" fill="#022a36" stroke="#022a36"></path><path d="M187 428.6L227 473.4L221 429.6Z" fill="#003841" stroke="#003841"></path><path d="M361 554.1L360 513.3L319 524.3Z" fill="#004046" stroke="#004046"></path><path d="M361 554.1L393 519.3L360 513.3Z" fill="#04232f" stroke="#04232f"></path><path d="M450 522.3L499 545.1L483 502.3Z" fill="#00554e" stroke="#00554e"></path><path d="M670 417.6L667 393.7L633 423.6Z" fill="#00313c" stroke="#00313c"></path><path d="M633 423.6L667 393.7L626 392.7Z" fill="#004046" stroke="#004046"></path><path d="M143 416.6L187 428.6L184 382.7Z" fill="#00474a" stroke="#00474a"></path><path d="M184 382.7L187 428.6L212 387.7Z" fill="#04232f" stroke="#04232f"></path><path d="M444 558.1L499 545.1L450 522.3Z" fill="#006a45" stroke="#006a45"></path><path d="M543 504.3L586 516.3L595 483.4Z" fill="#004e4d" stroke="#004e4d"></path><path d="M669 162.4L635 115.6L619 166.4Z" fill="#006a45" stroke="#006a45"></path><path d="M667 393.7L686 345.9L617 336.9Z" fill="#00554e" stroke="#00554e"></path><path d="M676 291L708 260.1L674 255.1Z" fill="#00313c" stroke="#00313c"></path><path d="M260 42.9L222 91.7L277 82.7Z" fill="#00474a" stroke="#00474a"></path><path d="M212 137.6L176 132.6L190 164.4Z" fill="#00313c" stroke="#00313c"></path><path d="M395 553.1L444 558.1L450 522.3Z" fill="#003841" stroke="#003841"></path><path d="M321 558.1L361 554.1L319 524.3Z" fill="#003841" stroke="#003841"></path><path d="M395 553.1L393 600L444 558.1Z" fill="#004e4d" stroke="#004e4d"></path><path d="M168 267.1L142 308L190 306Z" fill="#004046" stroke="#004046"></path><path d="M172 345.9L134 386.7L184 382.7Z" fill="#00634a" stroke="#00634a"></path><path d="M123 252.1L142 308L168 267.1Z" fill="#00634a" stroke="#00634a"></path><path d="M677 222.3L669 162.4L629 222.3Z" fill="#004046" stroke="#004046"></path><path d="M635 115.6L624 93.7L588 127.6Z" fill="#005d4d" stroke="#005d4d"></path><path d="M531 0L499 33.9L531 52.9Z" fill="#004046" stroke="#004046"></path><path d="M676 77.7L624 93.7L635 115.6Z" fill="#004046" stroke="#004046"></path><path d="M451 0L413 0L450 33.9Z" fill="#004046" stroke="#004046"></path><path d="M450 33.9L413 0L400 39.9Z" fill="#00554e" stroke="#00554e"></path><path d="M370 38.9L321 0L307 49.9Z" fill="#00554e" stroke="#00554e"></path><path d="M634 476.4L670 417.6L633 423.6Z" fill="#00554e" stroke="#00554e"></path><path d="M667 393.7L708 351.9L686 345.9Z" fill="#04232f" stroke="#04232f"></path><path d="M487 0L451 0L450 33.9Z" fill="#006a45" stroke="#006a45"></path><path d="M487 0L450 33.9L499 33.9Z" fill="#00474a" stroke="#00474a"></path><path d="M124 164.4L135 207.3L173 204.3Z" fill="#022a36" stroke="#022a36"></path><path d="M173 204.3L135 207.3L168 267.1Z" fill="#004e4d" stroke="#004e4d"></path><path d="M222 91.7L176 132.6L212 137.6Z" fill="#006a45" stroke="#006a45"></path><path d="M547 552.1L586 516.3L543 504.3Z" fill="#003841" stroke="#003841"></path><path d="M595 483.4L634 476.4L633 423.6Z" fill="#00313c" stroke="#00313c"></path><path d="M307 49.9L260 42.9L277 82.7Z" fill="#00634a" stroke="#00634a"></path><path d="M222 91.7L169 81.7L176 132.6Z" fill="#004046" stroke="#004046"></path><path d="M279 0L260 42.9L307 49.9Z" fill="#004e4d" stroke="#004e4d"></path><path d="M630 518.3L634 476.4L595 483.4Z" fill="#00634a" stroke="#00634a"></path><path d="M413 0L361 0L400 39.9Z" fill="#006a45" stroke="#006a45"></path><path d="M712 306L708 260.1L676 291Z" fill="#00634a" stroke="#00634a"></path><path d="M677 222.3L720 201.3L669 162.4Z" fill="#004e4d" stroke="#004e4d"></path><path d="M712 306L676 291L686 345.9Z" fill="#005d4d" stroke="#005d4d"></path><path d="M270 560.1L321 558.1L319 524.3Z" fill="#003841" stroke="#003841"></path><path d="M369 600L393 600L395 553.1Z" fill="#00634a" stroke="#00634a"></path><path d="M270 560.1L319 524.3L280 514.3Z" fill="#00634a" stroke="#00634a"></path><path d="M86 299L131 330.9L142 308Z" fill="#004046" stroke="#004046"></path><path d="M142 308L131 330.9L172 345.9Z" fill="#004046" stroke="#004046"></path><path d="M594 43.9L531 52.9L587 79.7Z" fill="#00634a" stroke="#00634a"></path><path d="M124 164.4L173 204.3L190 164.4Z" fill="#00554e" stroke="#00554e"></path><path d="M708 351.9L712 306L686 345.9Z" fill="#00554e" stroke="#00554e"></path><path d="M135 207.3L123 252.1L168 267.1Z" fill="#004e4d" stroke="#004e4d"></path><path d="M498 600L547 552.1L499 545.1Z" fill="#00554e" stroke="#00554e"></path><path d="M499 545.1L547 552.1L543 504.3Z" fill="#00474a" stroke="#00474a"></path><path d="M586 516.3L630 518.3L595 483.4Z" fill="#003841" stroke="#003841"></path><path d="M732 389.7L708 351.9L667 393.7Z" fill="#00554e" stroke="#00554e"></path><path d="M638 48.9L594 43.9L624 93.7Z" fill="#022a36" stroke="#022a36"></path><path d="M624 93.7L594 43.9L587 79.7Z" fill="#003841" stroke="#003841"></path><path d="M361 0L321 0L370 38.9Z" fill="#003841" stroke="#003841"></path><path d="M711 118.6L669 116.6L669 162.4Z" fill="#004e4d" stroke="#004e4d"></path><path d="M669 162.4L669 116.6L635 115.6Z" fill="#006a45" stroke="#006a45"></path><path d="M131 330.9L134 386.7L172 345.9Z" fill="#004046" stroke="#004046"></path><path d="M187 428.6L184 479.4L227 473.4Z" fill="#005d4d" stroke="#005d4d"></path><path d="M82 346.9L134 386.7L131 330.9Z" fill="#00313c" stroke="#00313c"></path><path d="M143 416.6L184 479.4L187 428.6Z" fill="#004e4d" stroke="#004e4d"></path><path d="M227 473.4L218 514.3L280 514.3Z" fill="#006a45" stroke="#006a45"></path><path d="M184 479.4L218 514.3L227 473.4Z" fill="#005d4d" stroke="#005d4d"></path><path d="M572 0L531 0L531 52.9Z" fill="#004046" stroke="#004046"></path><path d="M134 386.7L143 416.6L184 382.7Z" fill="#00313c" stroke="#00313c"></path><path d="M547 552.1L584 546.1L586 516.3Z" fill="#006a45" stroke="#006a45"></path><path d="M762 255.1L720 201.3L708 260.1Z" fill="#006a45" stroke="#006a45"></path><path d="M708 260.1L720 201.3L677 222.3Z" fill="#00474a" stroke="#00474a"></path><path d="M231 551.1L270 560.1L280 514.3Z" fill="#00634a" stroke="#00634a"></path><path d="M369 600L395 553.1L361 554.1Z" fill="#00474a" stroke="#00474a"></path><path d="M236 0L214 44.9L260 42.9Z" fill="#00554e" stroke="#00554e"></path><path d="M260 42.9L214 44.9L222 91.7Z" fill="#005d4d" stroke="#005d4d"></path><path d="M176 132.6L138 137.6L190 164.4Z" fill="#006a45" stroke="#006a45"></path><path d="M584 546.1L630 518.3L586 516.3Z" fill="#005d4d" stroke="#005d4d"></path><path d="M634 476.4L687 473.4L670 417.6Z" fill="#04232f" stroke="#04232f"></path><path d="M724 419.6L732 389.7L667 393.7Z" fill="#005d4d" stroke="#005d4d"></path><path d="M136 86.7L138 137.6L176 132.6Z" fill="#004e4d" stroke="#004e4d"></path><path d="M135 207.3L92 209.3L123 252.1Z" fill="#00474a" stroke="#00474a"></path><path d="M321 0L279 0L307 49.9Z" fill="#005d4d" stroke="#005d4d"></path><path d="M369 600L361 554.1L321 558.1Z" fill="#00554e" stroke="#00554e"></path><path d="M444 558.1L457 600L499 545.1Z" fill="#022a36" stroke="#022a36"></path><path d="M547 552.1L585 600L584 546.1Z" fill="#004e4d" stroke="#004e4d"></path><path d="M138 137.6L124 164.4L190 164.4Z" fill="#00634a" stroke="#00634a"></path><path d="M393 600L457 600L444 558.1Z" fill="#022a36" stroke="#022a36"></path><path d="M306 600L369 600L321 558.1Z" fill="#004e4d" stroke="#004e4d"></path><path d="M214 44.9L169 81.7L222 91.7Z" fill="#00313c" stroke="#00313c"></path><path d="M676 77.7L638 48.9L624 93.7Z" fill="#004e4d" stroke="#004e4d"></path><path d="M594 43.9L572 0L531 52.9Z" fill="#04232f" stroke="#04232f"></path><path d="M676 77.7L635 115.6L669 116.6Z" fill="#006a45" stroke="#006a45"></path><path d="M617 0L572 0L594 43.9Z" fill="#004046" stroke="#004046"></path><path d="M457 600L498 600L499 545.1Z" fill="#022a36" stroke="#022a36"></path><path d="M664 561.1L685 519.3L630 518.3Z" fill="#00634a" stroke="#00634a"></path><path d="M218 514.3L231 551.1L280 514.3Z" fill="#004e4d" stroke="#004e4d"></path><path d="M270 560.1L306 600L321 558.1Z" fill="#00634a" stroke="#00634a"></path><path d="M188 568.1L231 551.1L218 514.3Z" fill="#003841" stroke="#003841"></path><path d="M685 519.3L687 473.4L634 476.4Z" fill="#005d4d" stroke="#005d4d"></path><path d="M711 118.6L676 77.7L669 116.6Z" fill="#006a45" stroke="#006a45"></path><path d="M724 419.6L667 393.7L670 417.6Z" fill="#022a36" stroke="#022a36"></path><path d="M708 351.9L755 331.9L712 306Z" fill="#00634a" stroke="#00634a"></path><path d="M712 306L758 305L708 260.1Z" fill="#00313c" stroke="#00313c"></path><path d="M777 182.4L727 161.4L720 201.3Z" fill="#00474a" stroke="#00474a"></path><path d="M720 201.3L727 161.4L669 162.4Z" fill="#00634a" stroke="#00634a"></path><path d="M80 252.1L86 299L123 252.1Z" fill="#04232f" stroke="#04232f"></path><path d="M123 252.1L86 299L142 308Z" fill="#004046" stroke="#004046"></path><path d="M134 386.7L87 387.7L143 416.6Z" fill="#00313c" stroke="#00313c"></path><path d="M711 461.4L724 419.6L670 417.6Z" fill="#004046" stroke="#004046"></path><path d="M91 174.4L135 207.3L124 164.4Z" fill="#00554e" stroke="#00554e"></path><path d="M91 174.4L92 209.3L135 207.3Z" fill="#004e4d" stroke="#004e4d"></path><path d="M91 174.4L124 164.4L98 132.6Z" fill="#006a45" stroke="#006a45"></path><path d="M277 600L306 600L270 560.1Z" fill="#00634a" stroke="#00634a"></path><path d="M727 161.4L711 118.6L669 162.4Z" fill="#022a36" stroke="#022a36"></path><path d="M184 479.4L169 511.3L218 514.3Z" fill="#003841" stroke="#003841"></path><path d="M235 600L277 600L270 560.1Z" fill="#005d4d" stroke="#005d4d"></path><path d="M147 512.3L169 511.3L184 479.4Z" fill="#003841" stroke="#003841"></path><path d="M127 480.4L184 479.4L143 416.6Z" fill="#022a36" stroke="#022a36"></path><path d="M214 44.9L180 35.9L169 81.7Z" fill="#00474a" stroke="#00474a"></path><path d="M279 0L236 0L260 42.9Z" fill="#005d4d" stroke="#005d4d"></path><path d="M759 381.7L708 351.9L732 389.7Z" fill="#004046" stroke="#004046"></path><path d="M759 381.7L755 331.9L708 351.9Z" fill="#003841" stroke="#003841"></path><path d="M92 209.3L80 252.1L123 252.1Z" fill="#005d4d" stroke="#005d4d"></path><path d="M755 331.9L758 305L712 306Z" fill="#00474a" stroke="#00474a"></path><path d="M687 473.4L711 461.4L670 417.6Z" fill="#005d4d" stroke="#005d4d"></path><path d="M752 435.6L759 381.7L732 389.7Z" fill="#003841" stroke="#003841"></path><path d="M709 526.3L711 461.4L687 473.4Z" fill="#005d4d" stroke="#005d4d"></path><path d="M55 332.9L82 346.9L86 299Z" fill="#04232f" stroke="#04232f"></path><path d="M86 299L82 346.9L131 330.9Z" fill="#00474a" stroke="#00474a"></path><path d="M498 600L551 600L547 552.1Z" fill="#022a36" stroke="#022a36"></path><path d="M630 518.3L685 519.3L634 476.4Z" fill="#005d4d" stroke="#005d4d"></path><path d="M183 0L180 35.9L214 44.9Z" fill="#004046" stroke="#004046"></path><path d="M169 81.7L136 86.7L176 132.6Z" fill="#003841" stroke="#003841"></path><path d="M143 53.9L136 86.7L169 81.7Z" fill="#005d4d" stroke="#005d4d"></path><path d="M758 305L762 255.1L708 260.1Z" fill="#00554e" stroke="#00554e"></path><path d="M762 91.7L727 78.7L711 118.6Z" fill="#005d4d" stroke="#005d4d"></path><path d="M98 132.6L124 164.4L138 137.6Z" fill="#004046" stroke="#004046"></path><path d="M34 219.3L43 267.1L80 252.1Z" fill="#04232f" stroke="#04232f"></path><path d="M235 600L270 560.1L231 551.1Z" fill="#003841" stroke="#003841"></path><path d="M669 31.9L638 48.9L676 77.7Z" fill="#005d4d" stroke="#005d4d"></path><path d="M669 31.9L617 0L638 48.9Z" fill="#006a45" stroke="#006a45"></path><path d="M638 48.9L617 0L594 43.9Z" fill="#004e4d" stroke="#004e4d"></path><path d="M82 346.9L87 387.7L134 386.7Z" fill="#005d4d" stroke="#005d4d"></path><path d="M84 466.4L127 480.4L143 416.6Z" fill="#00634a" stroke="#00634a"></path><path d="M188 568.1L235 600L231 551.1Z" fill="#00313c" stroke="#00313c"></path><path d="M752 435.6L732 389.7L724 419.6Z" fill="#004e4d" stroke="#004e4d"></path><path d="M818 288L813 268.1L758 305Z" fill="#022a36" stroke="#022a36"></path><path d="M813 268.1L771 225.3L762 255.1Z" fill="#005d4d" stroke="#005d4d"></path><path d="M136 86.7L98 132.6L138 137.6Z" fill="#003841" stroke="#003841"></path><path d="M127 480.4L147 512.3L184 479.4Z" fill="#004e4d" stroke="#004e4d"></path><path d="M708 46.9L669 31.9L676 77.7Z" fill="#003841" stroke="#003841"></path><path d="M636 569.1L630 518.3L584 546.1Z" fill="#00313c" stroke="#00313c"></path><path d="M711 461.4L752 435.6L724 419.6Z" fill="#00313c" stroke="#00313c"></path><path d="M551 600L585 600L547 552.1Z" fill="#004046" stroke="#004046"></path><path d="M813 268.1L762 255.1L758 305Z" fill="#003841" stroke="#003841"></path><path d="M762 255.1L771 225.3L720 201.3Z" fill="#00554e" stroke="#00554e"></path><path d="M711 118.6L727 78.7L676 77.7Z" fill="#022a36" stroke="#022a36"></path><path d="M585 600L636 569.1L584 546.1Z" fill="#004046" stroke="#004046"></path><path d="M133 0L143 53.9L180 35.9Z" fill="#00554e" stroke="#00554e"></path><path d="M180 35.9L143 53.9L169 81.7Z" fill="#005d4d" stroke="#005d4d"></path><path d="M136 86.7L92 93.7L98 132.6Z" fill="#003841" stroke="#003841"></path><path d="M188 568.1L218 514.3L169 511.3Z" fill="#00313c" stroke="#00313c"></path><path d="M146 560.1L188 568.1L169 511.3Z" fill="#005d4d" stroke="#005d4d"></path><path d="M764 458.4L752 435.6L711 461.4Z" fill="#004046" stroke="#004046"></path><path d="M46 302L55 332.9L86 299Z" fill="#004046" stroke="#004046"></path><path d="M82 346.9L35 379.7L87 387.7Z" fill="#004046" stroke="#004046"></path><path d="M87 387.7L77 425.6L143 416.6Z" fill="#004e4d" stroke="#004e4d"></path><path d="M46 302L86 299L43 267.1Z" fill="#00313c" stroke="#00313c"></path><path d="M86 299L80 252.1L43 267.1Z" fill="#022a36" stroke="#022a36"></path><path d="M236 0L183 0L214 44.9Z" fill="#00634a" stroke="#00634a"></path><path d="M35 379.7L77 425.6L87 387.7Z" fill="#00474a" stroke="#00474a"></path><path d="M127 480.4L93 525.3L147 512.3Z" fill="#04232f" stroke="#04232f"></path><path d="M147 512.3L146 560.1L169 511.3Z" fill="#006a45" stroke="#006a45"></path><path d="M636 569.1L664 561.1L630 518.3Z" fill="#00634a" stroke="#00634a"></path><path d="M685 519.3L709 526.3L687 473.4Z" fill="#00313c" stroke="#00313c"></path><path d="M673 600L664 561.1L636 569.1Z" fill="#004046" stroke="#004046"></path><path d="M765 136.6L711 118.6L727 161.4Z" fill="#04232f" stroke="#04232f"></path><path d="M815 212.3L777 182.4L771 225.3Z" fill="#00634a" stroke="#00634a"></path><path d="M771 225.3L777 182.4L720 201.3Z" fill="#00313c" stroke="#00313c"></path><path d="M80 252.1L92 209.3L34 219.3Z" fill="#004046" stroke="#004046"></path><path d="M46 471.4L84 466.4L77 425.6Z" fill="#004046" stroke="#004046"></path><path d="M727 78.7L708 46.9L676 77.7Z" fill="#022a36" stroke="#022a36"></path><path d="M669 31.9L667 0L617 0Z" fill="#00554e" stroke="#00554e"></path><path d="M34 219.3L92 209.3L37 168.4Z" fill="#04232f" stroke="#04232f"></path><path d="M777 182.4L765 136.6L727 161.4Z" fill="#00554e" stroke="#00554e"></path><path d="M727 78.7L760 50.9L708 46.9Z" fill="#005d4d" stroke="#005d4d"></path><path d="M713 0L667 0L669 31.9Z" fill="#00313c" stroke="#00313c"></path><path d="M84 40.9L92 93.7L136 86.7Z" fill="#003841" stroke="#003841"></path><path d="M37 168.4L92 209.3L91 174.4Z" fill="#004046" stroke="#004046"></path><path d="M84 40.9L136 86.7L143 53.9Z" fill="#00474a" stroke="#00474a"></path><path d="M664 561.1L709 526.3L685 519.3Z" fill="#04232f" stroke="#04232f"></path><path d="M585 600L628 600L636 569.1Z" fill="#00474a" stroke="#00474a"></path><path d="M664 561.1L722 547.1L709 526.3Z" fill="#04232f" stroke="#04232f"></path><path d="M35 379.7L82 346.9L55 332.9Z" fill="#004046" stroke="#004046"></path><path d="M77 425.6L84 466.4L143 416.6Z" fill="#004046" stroke="#004046"></path><path d="M752 435.6L798 428.6L759 381.7Z" fill="#003841" stroke="#003841"></path><path d="M812 348.9L758 305L755 331.9Z" fill="#003841" stroke="#003841"></path><path d="M760 513.3L764 458.4L711 461.4Z" fill="#00554e" stroke="#00554e"></path><path d="M93 525.3L146 560.1L147 512.3Z" fill="#04232f" stroke="#04232f"></path><path d="M188 568.1L190 600L235 600Z" fill="#022a36" stroke="#022a36"></path><path d="M37 168.4L91 174.4L98 132.6Z" fill="#00313c" stroke="#00313c"></path><path d="M0 334.9L55 332.9L46 302Z" fill="#00474a" stroke="#00474a"></path><path d="M136 600L190 600L188 568.1Z" fill="#004e4d" stroke="#004e4d"></path><path d="M808 121.6L762 91.7L765 136.6Z" fill="#004e4d" stroke="#004e4d"></path><path d="M765 136.6L762 91.7L711 118.6Z" fill="#003841" stroke="#003841"></path><path d="M708 46.9L713 0L669 31.9Z" fill="#004e4d" stroke="#004e4d"></path><path d="M812 348.9L755 331.9L759 381.7Z" fill="#04232f" stroke="#04232f"></path><path d="M777 182.4L803 159.4L765 136.6Z" fill="#00474a" stroke="#00474a"></path><path d="M0 292L46 302L43 267.1Z" fill="#00313c" stroke="#00313c"></path><path d="M0 334.9L35 379.7L55 332.9Z" fill="#00554e" stroke="#00554e"></path><path d="M36 121.6L37 168.4L98 132.6Z" fill="#00313c" stroke="#00313c"></path><path d="M820 383.7L812 348.9L759 381.7Z" fill="#00634a" stroke="#00634a"></path><path d="M812 348.9L818 288L758 305Z" fill="#00474a" stroke="#00474a"></path><path d="M711 600L722 547.1L664 561.1Z" fill="#003841" stroke="#003841"></path><path d="M709 526.3L760 513.3L711 461.4Z" fill="#003841" stroke="#003841"></path><path d="M183 0L133 0L180 35.9Z" fill="#04232f" stroke="#04232f"></path><path d="M92 93.7L36 121.6L98 132.6Z" fill="#006a45" stroke="#006a45"></path><path d="M844 244.1L815 212.3L813 268.1Z" fill="#003841" stroke="#003841"></path><path d="M813 268.1L815 212.3L771 225.3Z" fill="#003841" stroke="#003841"></path><path d="M815 212.3L803 159.4L777 182.4Z" fill="#00554e" stroke="#00554e"></path><path d="M46 471.4L93 525.3L84 466.4Z" fill="#00554e" stroke="#00554e"></path><path d="M84 466.4L93 525.3L127 480.4Z" fill="#004e4d" stroke="#004e4d"></path><path d="M146 560.1L136 600L188 568.1Z" fill="#00313c" stroke="#00313c"></path><path d="M628 600L673 600L636 569.1Z" fill="#005d4d" stroke="#005d4d"></path><path d="M812 477.4L798 428.6L764 458.4Z" fill="#022a36" stroke="#022a36"></path><path d="M764 458.4L798 428.6L752 435.6Z" fill="#00554e" stroke="#00554e"></path><path d="M760 50.9L727 78.7L762 91.7Z" fill="#005d4d" stroke="#005d4d"></path><path d="M760 50.9L713 0L708 46.9Z" fill="#04232f" stroke="#04232f"></path><path d="M722 547.1L760 513.3L709 526.3Z" fill="#003841" stroke="#003841"></path><path d="M754 547.1L760 513.3L722 547.1Z" fill="#005d4d" stroke="#005d4d"></path><path d="M133 0L84 40.9L143 53.9Z" fill="#006a45" stroke="#006a45"></path><path d="M805 80.7L760 50.9L762 91.7Z" fill="#005d4d" stroke="#005d4d"></path><path d="M850 305L844 244.1L818 288Z" fill="#00474a" stroke="#00474a"></path><path d="M798 428.6L820 383.7L759 381.7Z" fill="#04232f" stroke="#04232f"></path><path d="M855 374.7L820 383.7L867 421.6Z" fill="#004046" stroke="#004046"></path><path d="M35 379.7L32 436.6L77 425.6Z" fill="#005d4d" stroke="#005d4d"></path><path d="M0 427.6L32 436.6L35 379.7Z" fill="#022a36" stroke="#022a36"></path><path d="M32 85.7L36 121.6L92 93.7Z" fill="#00313c" stroke="#00313c"></path><path d="M0 256.1L43 267.1L34 219.3Z" fill="#003841" stroke="#003841"></path><path d="M32 436.6L46 471.4L77 425.6Z" fill="#005d4d" stroke="#005d4d"></path><path d="M0 256.1L34 219.3L0 207.3Z" fill="#04232f" stroke="#04232f"></path><path d="M0 256.1L0 292L43 267.1Z" fill="#004e4d" stroke="#004e4d"></path><path d="M0 207.3L34 219.3L37 168.4Z" fill="#04232f" stroke="#04232f"></path><path d="M0 292L0 334.9L46 302Z" fill="#004e4d" stroke="#004e4d"></path><path d="M843 130.6L808 121.6L803 159.4Z" fill="#003841" stroke="#003841"></path><path d="M803 159.4L808 121.6L765 136.6Z" fill="#003841" stroke="#003841"></path><path d="M98 566.1L146 560.1L93 525.3Z" fill="#005d4d" stroke="#005d4d"></path><path d="M98 566.1L136 600L146 560.1Z" fill="#006a45" stroke="#006a45"></path><path d="M0 170.4L0 207.3L37 168.4Z" fill="#004046" stroke="#004046"></path><path d="M711 600L754 547.1L722 547.1Z" fill="#022a36" stroke="#022a36"></path><path d="M760 513.3L812 477.4L764 458.4Z" fill="#04232f" stroke="#04232f"></path><path d="M34 556.1L98 566.1L93 525.3Z" fill="#004046" stroke="#004046"></path><path d="M818 288L844 244.1L813 268.1Z" fill="#00554e" stroke="#00554e"></path><path d="M815 212.3L859 179.4L803 159.4Z" fill="#003841" stroke="#003841"></path><path d="M850 305L818 288L812 348.9Z" fill="#003841" stroke="#003841"></path><path d="M0 334.9L0 384.7L35 379.7Z" fill="#04232f" stroke="#04232f"></path><path d="M32 436.6L0 472.4L46 471.4Z" fill="#004e4d" stroke="#004e4d"></path><path d="M133 0L95 0L84 40.9Z" fill="#00474a" stroke="#00474a"></path><path d="M84 40.9L32 85.7L92 93.7Z" fill="#04232f" stroke="#04232f"></path><path d="M673 600L711 600L664 561.1Z" fill="#00554e" stroke="#00554e"></path><path d="M864 334.9L850 305L812 348.9Z" fill="#004e4d" stroke="#004e4d"></path><path d="M0 137.6L0 170.4L37 168.4Z" fill="#003841" stroke="#003841"></path><path d="M0 137.6L37 168.4L36 121.6Z" fill="#00634a" stroke="#00634a"></path><path d="M40 33.9L32 85.7L84 40.9Z" fill="#04232f" stroke="#04232f"></path><path d="M843 130.6L805 80.7L808 121.6Z" fill="#00634a" stroke="#00634a"></path><path d="M808 121.6L805 80.7L762 91.7Z" fill="#00554e" stroke="#00554e"></path><path d="M760 50.9L760 0L713 0Z" fill="#022a36" stroke="#022a36"></path><path d="M802 512.3L760 513.3L754 547.1Z" fill="#04232f" stroke="#04232f"></path><path d="M802 512.3L812 477.4L760 513.3Z" fill="#04232f" stroke="#04232f"></path><path d="M820 383.7L855 374.7L812 348.9Z" fill="#006a45" stroke="#006a45"></path><path d="M0 384.7L0 427.6L35 379.7Z" fill="#00313c" stroke="#00313c"></path><path d="M46 471.4L33 511.3L93 525.3Z" fill="#004046" stroke="#004046"></path><path d="M0 79.7L0 137.6L36 121.6Z" fill="#00474a" stroke="#00474a"></path><path d="M815 0L760 0L760 50.9Z" fill="#00313c" stroke="#00313c"></path><path d="M867 421.6L820 383.7L798 428.6Z" fill="#006a45" stroke="#006a45"></path><path d="M813 564.1L802 512.3L754 547.1Z" fill="#00474a" stroke="#00474a"></path><path d="M854 465.4L867 421.6L798 428.6Z" fill="#00554e" stroke="#00554e"></path><path d="M0 472.4L33 511.3L46 471.4Z" fill="#00554e" stroke="#00554e"></path><path d="M98 566.1L90 600L136 600Z" fill="#006a45" stroke="#006a45"></path><path d="M855 374.7L864 334.9L812 348.9Z" fill="#022a36" stroke="#022a36"></path><path d="M900 218.3L861 205.3L844 244.1Z" fill="#00474a" stroke="#00474a"></path><path d="M900 287L844 244.1L850 305Z" fill="#004046" stroke="#004046"></path><path d="M844 244.1L861 205.3L815 212.3Z" fill="#006a45" stroke="#006a45"></path><path d="M859 179.4L843 130.6L803 159.4Z" fill="#005d4d" stroke="#005d4d"></path><path d="M805 80.7L819 54.9L760 50.9Z" fill="#003841" stroke="#003841"></path><path d="M861 205.3L859 179.4L815 212.3Z" fill="#004046" stroke="#004046"></path><path d="M51 0L40 33.9L84 40.9Z" fill="#004046" stroke="#004046"></path><path d="M32 85.7L0 79.7L36 121.6Z" fill="#00313c" stroke="#00313c"></path><path d="M34 556.1L90 600L98 566.1Z" fill="#022a36" stroke="#022a36"></path><path d="M0 427.6L0 472.4L32 436.6Z" fill="#00634a" stroke="#00634a"></path><path d="M33 511.3L34 556.1L93 525.3Z" fill="#004046" stroke="#004046"></path><path d="M856 73.7L805 80.7L843 130.6Z" fill="#003841" stroke="#003841"></path><path d="M856 73.7L819 54.9L805 80.7Z" fill="#003841" stroke="#003841"></path><path d="M95 0L51 0L84 40.9Z" fill="#005d4d" stroke="#005d4d"></path><path d="M0 49.9L0 79.7L32 85.7Z" fill="#00313c" stroke="#00313c"></path><path d="M0 49.9L32 85.7L40 33.9Z" fill="#006a45" stroke="#006a45"></path><path d="M854 465.4L798 428.6L812 477.4Z" fill="#00554e" stroke="#00554e"></path><path d="M900 386.7L900 332.9L864 334.9Z" fill="#00554e" stroke="#00554e"></path><path d="M864 334.9L900 287L850 305Z" fill="#004e4d" stroke="#004e4d"></path><path d="M0 523.3L34 556.1L33 511.3Z" fill="#00554e" stroke="#00554e"></path><path d="M853 523.3L812 477.4L802 512.3Z" fill="#004e4d" stroke="#004e4d"></path><path d="M853 523.3L854 465.4L812 477.4Z" fill="#004e4d" stroke="#004e4d"></path><path d="M711 600L770 600L754 547.1Z" fill="#006a45" stroke="#006a45"></path><path d="M0 0L0 49.9L40 33.9Z" fill="#006a45" stroke="#006a45"></path><path d="M900 332.9L900 287L864 334.9Z" fill="#005d4d" stroke="#005d4d"></path><path d="M861 205.3L900 163.4L859 179.4Z" fill="#004e4d" stroke="#004e4d"></path><path d="M900 122.6L856 73.7L843 130.6Z" fill="#04232f" stroke="#04232f"></path><path d="M0 472.4L0 523.3L33 511.3Z" fill="#005d4d" stroke="#005d4d"></path><path d="M900 287L900 251.1L844 244.1Z" fill="#00634a" stroke="#00634a"></path><path d="M770 600L813 564.1L754 547.1Z" fill="#022a36" stroke="#022a36"></path><path d="M900 386.7L864 334.9L855 374.7Z" fill="#004046" stroke="#004046"></path><path d="M900 386.7L855 374.7L867 421.6Z" fill="#00634a" stroke="#00634a"></path><path d="M900 163.4L843 130.6L859 179.4Z" fill="#005d4d" stroke="#005d4d"></path><path d="M819 54.9L815 0L760 50.9Z" fill="#022a36" stroke="#022a36"></path><path d="M900 251.1L900 218.3L844 244.1Z" fill="#006a45" stroke="#006a45"></path><path d="M856 73.7L847 51.9L819 54.9Z" fill="#003841" stroke="#003841"></path><path d="M847 51.9L815 0L819 54.9Z" fill="#00474a" stroke="#00474a"></path><path d="M900 434.6L900 386.7L867 421.6Z" fill="#003841" stroke="#003841"></path><path d="M900 434.6L867 421.6L854 465.4Z" fill="#022a36" stroke="#022a36"></path><path d="M0 523.3L0 549.1L34 556.1Z" fill="#00474a" stroke="#00474a"></path><path d="M34 556.1L36 600L90 600Z" fill="#006a45" stroke="#006a45"></path><path d="M813 564.1L853 523.3L802 512.3Z" fill="#004e4d" stroke="#004e4d"></path><path d="M0 600L36 600L34 556.1Z" fill="#003841" stroke="#003841"></path><path d="M900 218.3L900 163.4L861 205.3Z" fill="#004046" stroke="#004046"></path><path d="M856 73.7L900 30.9L847 51.9Z" fill="#04232f" stroke="#04232f"></path><path d="M770 600L810 600L813 564.1Z" fill="#04232f" stroke="#04232f"></path><path d="M813 564.1L850 565.1L853 523.3Z" fill="#005d4d" stroke="#005d4d"></path><path d="M900 463.4L900 434.6L854 465.4Z" fill="#005d4d" stroke="#005d4d"></path><path d="M51 0L0 0L40 33.9Z" fill="#003841" stroke="#003841"></path><path d="M900 163.4L900 122.6L843 130.6Z" fill="#006a45" stroke="#006a45"></path><path d="M847 51.9L860 0L815 0Z" fill="#00554e" stroke="#00554e"></path><path d="M900 523.3L854 465.4L853 523.3Z" fill="#006a45" stroke="#006a45"></path><path d="M900 523.3L900 463.4L854 465.4Z" fill="#004e4d" stroke="#004e4d"></path><path d="M842 600L850 565.1L813 564.1Z" fill="#00554e" stroke="#00554e"></path><path d="M900 122.6L900 83.7L856 73.7Z" fill="#00554e" stroke="#00554e"></path><path d="M0 549.1L0 600L34 556.1Z" fill="#04232f" stroke="#04232f"></path><path d="M900 30.9L860 0L847 51.9Z" fill="#022a36" stroke="#022a36"></path><path d="M810 600L842 600L813 564.1Z" fill="#00313c" stroke="#00313c"></path><path d="M900 547.1L900 523.3L853 523.3Z" fill="#004046" stroke="#004046"></path><path d="M900 547.1L853 523.3L850 565.1Z" fill="#004046" stroke="#004046"></path><path d="M900 83.7L900 30.9L856 73.7Z" fill="#006a45" stroke="#006a45"></path><path d="M900 600L900 547.1L850 565.1Z" fill="#00474a" stroke="#00474a"></path><path d="M900 30.9L900 0L860 0Z" fill="#022a36" stroke="#022a36"></path><path d="M842 600L900 600L850 565.1Z" fill="#00554e" stroke="#00554e"></path></g></svg>